<?xml version="1.0" encoding="UTF-8"?>
<svg version="1.1" xmlns="http://www.w3.org/2000/svg" width="1000" height="1000">
<path d="M0 0 C1.49795856 0.34239053 2.99787397 0.67638218 4.5 1 C5.20253906 1.15726562 5.90507813 1.31453125 6.62890625 1.4765625 C8.44688777 1.87789615 10.26778139 2.26605779 12.08984375 2.6484375 C18.106401 3.95424806 23.70145896 5.49408072 29.36328125 7.91015625 C32.4126754 9.1705725 35.50552664 10.23742726 38.625 11.3125 C64.75045017 20.59651696 87.59995571 34.86531463 110 51 C108.61624948 54.83401618 106.83573405 57.94991082 104.5234375 61.30078125 C103.853125 62.27724609 103.1828125 63.25371094 102.4921875 64.25976562 C101.44417969 65.77086914 101.44417969 65.77086914 100.375 67.3125 C99.66859375 68.33923828 98.9621875 69.36597656 98.234375 70.42382812 C96.49388988 72.95223556 94.74898214 75.47746624 93 78 C88.01843411 74.70787063 83.09549662 71.36540011 78.25 67.875 C59.46216622 54.7135 38.91410038 44.68718939 17 38 C15.95730957 37.67322266 15.95730957 37.67322266 14.89355469 37.33984375 C6.92534443 34.84420743 -0.8926971 32.57914497 -9.19140625 31.45703125 C-12 31 -12 31 -15.640625 30.01953125 C-20.76933631 28.70921503 -25.92053206 28.28234348 -31.1875 27.875 C-32.26322266 27.7915332 -33.33894531 27.70806641 -34.44726562 27.62207031 C-55.39742562 26.15135707 -77.26793068 25.39107573 -97.80859375 30.49609375 C-101.63545361 31.37606687 -105.52036825 31.92889478 -109.3984375 32.53515625 C-112.10097141 32.95341778 -112.10097141 32.95341778 -115 34 C-117.03494347 34.53768831 -119.06992664 35.07522742 -121.10522461 35.61157227 C-128.14133782 37.48734309 -134.77285354 39.4889377 -141.31665039 42.74707031 C-143.88919818 43.94826358 -146.4388926 44.89490569 -149.125 45.80859375 C-155.02682152 47.92708231 -160.51932378 50.58133046 -166.0625 53.5 C-167.04968018 54.0161084 -168.03686035 54.5322168 -169.05395508 55.06396484 C-177.85756968 59.75535074 -186.12518841 65.09710594 -194.25854492 70.86181641 C-196.10964096 72.07165935 -198.00593695 73.04768516 -200 74 C-200 74.66 -200 75.32 -200 76 C-201.33724198 76.87976446 -202.67818959 77.7541387 -204.03125 78.609375 C-207.43010407 81.01015287 -210.40786889 83.88470625 -213.47265625 86.69140625 C-216.3076413 89.28101393 -219.20087021 91.7951076 -222.11328125 94.296875 C-230.75334538 102.09618755 -240.73402393 112.46804786 -246 123 C-246.66 123 -247.32 123 -248 123 C-248.27714844 123.74507812 -248.55429687 124.49015625 -248.83984375 125.2578125 C-249.89376968 127.74891016 -251.01230906 129.6755838 -252.5625 131.875 C-263.42656714 147.89355155 -271.79585181 164.67929991 -278.24829102 182.91772461 C-278.79733614 184.43860993 -279.36867845 185.95149835 -279.95288086 187.45922852 C-282.67254275 194.58695252 -284.50160855 201.72595797 -286.0625 209.1875 C-286.31854004 210.40711426 -286.57458008 211.62672852 -286.83837891 212.88330078 C-299.46849871 274.81188947 -288.61750851 339.3512396 -254.26171875 392.69921875 C-252.55177888 395.168225 -250.78656605 397.58581793 -249 400 C-248.08615163 401.26614255 -247.17348717 402.53314007 -246.26171875 403.80078125 C-245.27920964 405.15926211 -244.29613608 406.51733492 -243.3125 407.875 C-242.61664795 408.83998413 -242.61664795 408.83998413 -241.90673828 409.82446289 C-239.93790775 412.51822293 -238.04000763 414.96019341 -235.66796875 417.3203125 C-234 419 -234 419 -234 421 C-233.34 421 -232.68 421 -232 421 C-227 426.47619048 -227 426.47619048 -227 429 C-226.38125 429.2475 -225.7625 429.495 -225.125 429.75 C-222.59641373 431.23740369 -222.28160996 432.43678009 -221 435 C-220.4121875 435.28746094 -219.824375 435.57492187 -219.21875 435.87109375 C-216.52257687 437.24291423 -214.69818629 438.98521396 -212.5 441.0625 C-200.7992481 451.78245357 -187.42575008 460.60252514 -174 469 C-175.6237724 473.89997201 -178.42867682 477.76224991 -181.375 481.9375 C-182.34150705 483.32136237 -183.30765857 484.70547313 -184.2734375 486.08984375 C-184.73459961 486.74839355 -185.19576172 487.40694336 -185.67089844 488.08544922 C-187.48535436 490.69914564 -189.24662899 493.34501404 -191 496 C-200.42636662 490.92975735 -208.79862843 484.87711625 -217.24951172 478.34814453 C-218.689409 477.23920272 -220.14187448 476.14659907 -221.59765625 475.05859375 C-226.62598934 471.27137373 -231.25105302 467.11827261 -235.84082031 462.81811523 C-237.94551653 460.85032986 -240.01833316 458.98674419 -242.35546875 457.296875 C-242.89816406 456.86890625 -243.44085938 456.4409375 -244 456 C-244 455.34 -244 454.68 -244 454 C-244.99 453.67 -245.98 453.34 -247 453 C-247 452.34 -247 451.68 -247 451 C-247.66 451 -248.32 451 -249 451 C-250.41015625 449.6015625 -250.41015625 449.6015625 -252.0625 447.625 C-253.99287905 445.34256412 -255.91869914 443.08630151 -257.96875 440.91015625 C-274.89763987 422.93900263 -288.55956543 401.2990078 -299 379 C-299.45761719 378.05125 -299.91523438 377.1025 -300.38671875 376.125 C-306.44600707 363.28007333 -311.20201844 349.67273361 -315 336 C-315.4640625 334.4221875 -315.4640625 334.4221875 -315.9375 332.8125 C-319.08955214 321.50219527 -321.58765595 310.22179007 -322.71484375 298.51953125 C-322.92342191 296.67661464 -323.19550983 294.84058127 -323.50390625 293.01171875 C-325.02409146 283.28465951 -325.19299353 273.63677039 -325.1875 263.8125 C-325.18831573 263.13017303 -325.18913147 262.44784607 -325.18997192 261.74484253 C-325.18815844 248.31397353 -324.24162414 235.24327948 -322 222 C-321.78110518 220.64325252 -321.56236209 219.28648056 -321.34375 217.9296875 C-319.7814972 208.44659604 -317.69056169 199.23727136 -315 190 C-314.65324219 188.78441406 -314.30648437 187.56882812 -313.94921875 186.31640625 C-302.71029941 148.58298976 -283.22985543 112.62997211 -256 84 C-254.78409707 82.61075553 -253.57514882 81.21537667 -252.375 79.8125 C-249.33992322 76.31929843 -246.12784624 73.04382788 -242.828125 69.80078125 C-241.40007421 68.39409019 -240.00561351 66.95327738 -238.625 65.5 C-234.64503765 61.70955966 -230.33044791 58.37928541 -226 55 C-224.98292969 54.20078125 -223.96585937 53.4015625 -222.91796875 52.578125 C-217.35323817 48.2304937 -211.71429609 43.9999133 -205.9375 39.9375 C-204.89464844 39.20402344 -203.85179687 38.47054687 -202.77734375 37.71484375 C-200.39068788 36.24122642 -198.7352842 35.42636325 -196 35 C-196 34.34 -196 33.68 -196 33 C-195.30777344 32.6596875 -194.61554688 32.319375 -193.90234375 31.96875 C-187.26291882 28.68278024 -187.26291882 28.68278024 -180.7421875 25.171875 C-129.23232774 -3.69241999 -57.65904139 -15.53332887 0 0 Z " fill="#50D8FB" transform="translate(546,255)"/>
<path d="M0 0 C9.9 0 19.8 0 30 0 C30.33 19.14 30.66 38.28 31 58 C53.11 58 75.22 58 98 58 C98.28939393 39.2863347 98.28939393 39.2863347 98.56811523 20.57250977 C98.606219 18.23713555 98.64468647 15.90176722 98.68359375 13.56640625 C98.70006958 12.34078979 98.71654541 11.11517334 98.73352051 9.85241699 C98.75370239 8.69528198 98.77388428 7.53814697 98.79467773 6.34594727 C98.81022202 5.335569 98.8257663 4.32519073 98.84178162 3.28419495 C99 1 99 1 100 0 C102.0605531 -0.09993532 104.1245259 -0.13080906 106.1875 -0.1328125 C107.44304687 -0.13410156 108.69859375 -0.13539063 109.9921875 -0.13671875 C110.64928711 -0.13462402 111.30638672 -0.1325293 111.98339844 -0.13037109 C113.99161335 -0.12502234 115.99960459 -0.13031691 118.0078125 -0.13671875 C119.89113281 -0.13478516 119.89113281 -0.13478516 121.8125 -0.1328125 C122.97394531 -0.13168457 124.13539063 -0.13055664 125.33203125 -0.12939453 C128 0 128 0 129 1 C129.1653008 3.45061869 129.26163244 5.87393852 129.31640625 8.328125 C129.3373233 9.13969559 129.35824036 9.95126617 129.37979126 10.78742981 C129.44822658 13.60816982 129.50643995 16.42898766 129.5625 19.25 C129.59327133 20.72966751 129.59327133 20.72966751 129.62466431 22.23922729 C130.10681062 46.4458154 130.14341374 70.65827252 130.18122482 94.86882019 C130.18750337 98.06421284 130.19741895 101.25957595 130.20828247 104.45495605 C130.22497554 109.56011221 130.23108791 114.66517883 130.22925949 119.77036095 C130.23005853 121.67984137 130.234201 123.58932365 130.24187088 125.49878883 C130.25169065 128.1426005 130.24887245 130.78611483 130.24291992 133.42993164 C130.24854226 134.19906513 130.2541646 134.96819862 130.25995731 135.76063919 C130.23223155 140.53435988 129.50670774 144.46470256 128 149 C123.54168018 149.02891546 119.08338431 149.04676981 114.625 149.0625 C113.35398437 149.07087891 112.08296875 149.07925781 110.7734375 149.08789062 C109.56171875 149.09111328 108.35 149.09433594 107.1015625 149.09765625 C105.98088379 149.10289307 104.86020508 149.10812988 103.70556641 149.11352539 C101 149 101 149 99 148 C98.67 128.2 98.34 108.4 98 88 C75.89 88 53.78 88 31 88 C30.71060196 107.70097393 30.71060196 107.70097393 30.43188477 127.40209961 C30.39378133 129.86052039 30.35531389 132.31893557 30.31640625 134.77734375 C30.2916925 136.71293152 30.2916925 136.71293152 30.26647949 138.68762207 C30.24629761 139.90566528 30.22611572 141.1237085 30.20532227 142.37866211 C30.18977798 143.44233505 30.1742337 144.506008 30.15821838 145.60191345 C30 148 30 148 29 149 C26.85441173 149.08775605 24.70595579 149.10695219 22.55859375 149.09765625 C21.25341797 149.09443359 19.94824219 149.09121094 18.60351562 149.08789062 C17.2148431 149.07953401 15.82617123 149.07106905 14.4375 149.0625 C13.04492344 149.05748666 11.65234519 149.05292347 10.25976562 149.04882812 C6.8398013 149.03699434 3.41992156 149.0205088 0 149 C-0.1539015 130.16347662 -0.30193479 111.32691586 -0.4429636 92.4902916 C-0.50858138 83.74431708 -0.57612641 74.99836535 -0.64819336 66.25244141 C-0.71099486 58.6303649 -0.77019575 51.00827044 -0.82505554 43.38613248 C-0.85423509 39.34950443 -0.88522941 35.31290855 -0.92053413 31.27632904 C-0.95370006 27.47778934 -0.98205529 23.67924424 -1.00670624 19.88064003 C-1.01660855 18.48583158 -1.028275 17.09103437 -1.04183006 15.69625664 C-1.06006566 13.7928036 -1.07135701 11.8892878 -1.08229065 9.98577881 C-1.09058679 8.92018612 -1.09888292 7.85459343 -1.10743046 6.75671005 C-1 4 -1 4 0 0 Z " fill="#556364" transform="translate(451,468)"/>
<path d="M0 0 C1.51813513 -0.0215741 3.03614606 -0.05567141 4.55371094 -0.10253906 C6.7420199 -0.16953054 8.92775388 -0.19699199 11.11694336 -0.21606445 C12.43025635 -0.24112061 13.74356934 -0.26617676 15.09667969 -0.29199219 C18.47241211 0.4050293 18.47241211 0.4050293 20.79467773 3.14892578 C23.52505488 8.44797118 23.52505488 8.44797118 24.67163086 11.1237793 C25.26500244 12.49228027 25.26500244 12.49228027 25.87036133 13.88842773 C26.50868896 15.38164551 26.50868896 15.38164551 27.15991211 16.9050293 C28.13385042 19.15039489 29.10920568 21.39514622 30.08569336 23.6394043 C30.34854126 24.24480042 30.61138916 24.85019653 30.88220215 25.47393799 C34.47238627 33.72977172 38.165262 41.93992577 41.84741211 50.1550293 C42.58858961 51.80995574 43.32971907 53.4649037 44.07080078 55.11987305 C46.2036099 59.88206774 48.33785108 64.64361966 50.47241211 69.4050293 C51.05868326 70.71296836 51.64494677 72.02091085 52.23120117 73.32885742 C54.32016847 77.98915127 56.40932424 82.64936046 58.49902344 87.30932617 C63.18298128 97.75551045 67.8595983 108.20497397 72.53491211 118.6550293 C72.90293945 119.47753174 73.2709668 120.30003418 73.65014648 121.14746094 C74.18865234 122.3510022 74.18865234 122.3510022 74.73803711 123.57885742 C75.08704071 124.35865967 75.43604431 125.13846191 75.79562378 125.94189453 C76.46877824 127.44746327 77.14094806 128.95347271 77.81204224 130.45996094 C79.1398078 133.43939164 80.47557031 136.41179863 81.85473633 139.36791992 C83.55484937 143.02603251 84.47241211 145.30140964 84.47241211 149.4050293 C80.11250337 149.47920975 75.75292932 149.53364474 71.39257812 149.56982422 C69.90944011 149.58490698 68.42634667 149.60537619 66.94335938 149.63134766 C64.81100466 149.66775545 62.67923976 149.68476003 60.54663086 149.69799805 C59.26361084 149.7137085 57.98059082 149.72941895 56.65869141 149.74560547 C53.47241211 149.4050293 53.47241211 149.4050293 50.47241211 146.4050293 C46.84241211 138.1550293 43.21241211 129.9050293 39.47241211 121.4050293 C15.05241211 121.4050293 -9.36758789 121.4050293 -34.52758789 121.4050293 C-40.46758789 134.7700293 -40.46758789 134.7700293 -46.52758789 148.4050293 C-48.40662037 150.28406178 -51.61564849 149.53556405 -54.11743164 149.5378418 C-54.77715469 149.53879852 -55.43687775 149.53975525 -56.11659241 149.54074097 C-57.5145782 149.54142265 -58.91256713 149.53956916 -60.31054688 149.53540039 C-62.45262772 149.53006036 -64.59449806 149.53534129 -66.73657227 149.54174805 C-68.09269252 149.5410871 -69.44881265 149.53980558 -70.80493164 149.5378418 C-72.0449292 149.53671387 -73.28492676 149.53558594 -74.5625 149.53442383 C-77.52758789 149.4050293 -77.52758789 149.4050293 -79.52758789 148.4050293 C-77.43657597 141.54448867 -74.69680163 135.14131117 -71.65258789 128.6550293 C-70.66188225 126.51883068 -69.67234945 124.38208785 -68.68383789 122.24487305 C-68.16692383 121.12838379 -67.65000977 120.01189453 -67.11743164 118.86157227 C-64.42087695 112.99888472 -61.78659985 107.10852046 -59.15258789 101.2175293 C-58.60101637 99.98468999 -58.04942116 98.75186129 -57.49780273 97.51904297 C-56.38722707 95.03654976 -55.27712189 92.55384673 -54.16723633 90.07104492 C-52.06533439 85.37011717 -49.95759434 80.67181032 -47.85009766 75.97338867 C-42.50202557 64.0500359 -37.16139668 52.12335081 -31.82385254 40.19528198 C-31.1002114 38.57816352 -30.37650041 36.9610763 -29.65270996 35.34402466 C-28.62508562 33.04806056 -27.59781042 30.75194046 -26.57055664 28.45581055 C-26.24008331 27.71774673 -25.90960999 26.97968292 -25.56912231 26.21925354 C-23.79277857 22.24856937 -22.02648077 18.27370591 -20.2722168 14.29321289 C-19.90477859 13.46105759 -19.53734039 12.62890228 -19.1587677 11.77153015 C-18.45161667 10.1688975 -17.74637097 8.56542244 -17.04325867 6.96101379 C-13.25328641 -1.62173694 -8.66600268 0.09267951 0 0 Z M2.47241211 33.4050293 C-3.0427641 43.77004559 -7.54651367 54.55945256 -12.09790039 65.37158203 C-13.41392072 68.49442145 -14.73995609 71.61288382 -16.06665039 74.73120117 C-16.90579521 76.71727456 -17.7443585 78.70359379 -18.58227539 80.69018555 C-18.97905487 81.62137711 -19.37583435 82.55256866 -19.78463745 83.51197815 C-20.14566559 84.37395309 -20.50669373 85.23592804 -20.87866211 86.12402344 C-21.3578157 87.25886925 -21.3578157 87.25886925 -21.84664917 88.41664124 C-22.68958095 90.52776809 -22.68958095 90.52776809 -22.52758789 93.4050293 C-5.69758789 93.4050293 11.13241211 93.4050293 28.47241211 93.4050293 C26.14858247 86.31575344 26.14858247 86.31575344 23.43530273 79.45532227 C23.06481812 78.5976828 22.6943335 77.74004333 22.31262207 76.85641479 C21.92191528 75.96237946 21.5312085 75.06834412 21.12866211 74.1472168 C20.71829712 73.19992706 20.30793213 72.25263733 19.88513184 71.27664185 C18.58442734 68.27622192 17.27854146 65.27809108 15.97241211 62.2800293 C15.09575976 60.26065007 14.21945453 58.24112011 13.34350586 56.22143555 C11.73434088 52.51199431 10.1229857 48.80352031 8.50952148 45.09594727 C6.8172021 41.2045749 5.13958135 37.30723901 3.47241211 33.4050293 C3.14241211 33.4050293 2.81241211 33.4050293 2.47241211 33.4050293 Z " fill="#556364" transform="translate(693.527587890625,467.594970703125)"/>
<path d="M0 0 C1.68732277 1.98260426 3.35366057 3.9832342 5 6 C5.66 6.33 6.32 6.66 7 7 C7 7.66 7 8.32 7 9 C7.57234375 9.268125 8.1446875 9.53625 8.734375 9.8125 C11.07884634 11.04132636 13.12404938 12.42522176 15.25 14 C15.95640625 14.515625 16.6628125 15.03125 17.390625 15.5625 C17.92171875 16.036875 18.4528125 16.51125 19 17 C19 17.66 19 18.32 19 19 C19.64066406 19.21269531 20.28132813 19.42539062 20.94140625 19.64453125 C25.23635234 21.54791093 29.00925282 24.12575266 32.9375 26.6875 C46.84896769 35.61088228 61.18308884 42.57653781 77.125 47.0625 C78.0337085 47.31926514 78.94241699 47.57603027 79.87866211 47.84057617 C127.22398134 60.92671769 177.13064983 54.72854238 220 31 C229.58243961 25.45266976 238.34954824 18.88942445 247 12 C247.88558594 11.30519531 248.77117187 10.61039063 249.68359375 9.89453125 C251.96208948 8.19497011 251.96208948 8.19497011 253.16162109 6.39990234 C256.06824517 4.18654478 259.22844756 4.63256962 262.73046875 4.70703125 C263.48088943 4.71127609 264.23131012 4.71552094 265.00447083 4.71989441 C267.39918026 4.7366755 269.79304534 4.7743251 272.1875 4.8125 C273.8118368 4.82754765 275.4361868 4.84123591 277.06054688 4.85351562 C281.04068948 4.88657695 285.02020163 4.93835406 289 5 C289.33 5.66 289.66 6.32 290 7 C289.34 7 288.68 7 288 7 C287.74057617 7.58322021 287.48115234 8.16644043 287.21386719 8.76733398 C285.0052065 12.82972377 281.50946459 15.82717696 278.25 19.0625 C277.48647217 19.82183838 276.72294434 20.58117676 275.9362793 21.36352539 C269.8511424 27.32963142 263.53877668 32.74234054 256.66650391 37.7734375 C255.02352638 38.98268436 253.40779252 40.22225397 251.79296875 41.46875 C209.18575051 73.7802351 151.70858389 86.08080688 99.125 78.875 C59.80301824 72.80755776 22.94640036 56.17934019 -7 30 C-7.79132324 29.31019043 -7.79132324 29.31019043 -8.59863281 28.60644531 C-11.44096028 26.11502247 -14.247315 23.59010279 -17 21 C-17.58136719 20.46632813 -18.16273438 19.93265625 -18.76171875 19.3828125 C-20 18 -20 18 -20 16 C-18.6015625 14.58984375 -18.6015625 14.58984375 -16.625 12.9375 C-12.34165541 9.31195476 -8.21627867 5.53800452 -4.1015625 1.72265625 C-2 0 -2 0 0 0 Z " fill="#50D8FB" transform="translate(362,649)"/>
<path d="M0 0 C1.99419019 1.99419019 1.49819394 5.70392043 1.6875 8.4375 C1.74744141 9.13166016 1.80738281 9.82582031 1.86914062 10.54101562 C1.99744934 12.35667181 2.00619809 14.17982636 2 16 C-0.92905114 18.92905114 -4.24087121 18.55524435 -8.1875 18.875 C-42.3286495 22.20551229 -71.57096481 39.53456449 -94 65 C-101.92081025 74.71950401 -107.8954943 85.58868768 -113 97 C-113.72316406 98.61455078 -113.72316406 98.61455078 -114.4609375 100.26171875 C-127.55998035 131.89789193 -125.91957735 168.66252721 -113 200 C-107.97541762 211.23679333 -101.92267147 221.56022123 -94 231 C-93.29359375 231.845625 -92.5871875 232.69125 -91.859375 233.5625 C-83.72688981 242.92363403 -74.67787402 251.60945419 -64 258 C-64.60355408 261.85025879 -65.76772603 264.86101159 -67.5625 268.3125 C-68.01753906 269.19550781 -68.47257812 270.07851563 -68.94140625 270.98828125 C-69.46541016 271.98408203 -69.46541016 271.98408203 -70 273 C-84.43002206 271.27154001 -101.23187582 250.86611839 -110 240 C-134.34750779 207.93455093 -145.3509249 167.54972854 -139.92358398 127.59545898 C-134.98434119 95.50650595 -121.10921957 68.63521707 -99 45 C-98.16597656 44.10023438 -97.33195312 43.20046875 -96.47265625 42.2734375 C-73.24139623 18.0528874 -34.13234974 -1.58236816 0 0 Z " fill="#556263" transform="translate(483,372)"/>
<path d="M0 0 C13.50356633 0 13.50356633 0 18.1484375 1.171875 C19.67573486 1.54711304 19.67573486 1.54711304 21.23388672 1.92993164 C22.2704541 2.2005542 23.30702148 2.47117676 24.375 2.75 C26.01299561 3.16270142 26.01299561 3.16270142 27.68408203 3.58374023 C30.79369866 4.37350982 33.89725094 5.1837367 37 6 C37.76828125 6.19674316 38.5365625 6.39348633 39.328125 6.59619141 C47.32151027 8.64682004 54.58004952 11.41206342 62 15 C63.7015625 15.7115625 63.7015625 15.7115625 65.4375 16.4375 C84.42298864 24.7644687 100.95308803 35.965307 117 49 C117.85851562 49.66644531 118.71703125 50.33289063 119.6015625 51.01953125 C121.67386118 52.73069645 123.3133134 54.36268381 125 56.4375 C128.35410181 60.46070652 132.02644208 64.06971132 135.8125 67.6875 C138 70 138 70 138 72 C138.66 72 139.32 72 140 72 C141.57752165 73.77509775 143.0120843 75.54446433 144.4375 77.4375 C144.87562012 78.01516113 145.31374023 78.59282227 145.76513672 79.18798828 C154.67252848 91.1160106 162.26344075 103.73920857 169 117 C165.62284512 120.37715488 153.52259921 118.89672866 148.65185547 118.93652344 C136.90836511 118.81749987 136.90836511 118.81749987 133.2578125 115.5234375 C131.03400535 112.11034154 129.52086504 108.77384862 128 105 C126.60926678 102.93206273 125.14974689 100.90870531 123.625 98.9375 C122.88765625 97.96296875 122.1503125 96.9884375 121.390625 95.984375 C117.19008347 90.74056171 112.62962325 85.86430461 108 81 C107.41863281 80.36578125 106.83726562 79.7315625 106.23828125 79.078125 C84.47089324 56.04965405 52.54800875 40.48317256 22.125 33.1875 C21.27019043 32.9807666 20.41538086 32.7740332 19.53466797 32.56103516 C14.37172277 31.37480485 9.31005175 30.63869771 4.02685547 30.23950195 C2 30 2 30 0 29 C0 19.43 0 9.86 0 0 Z " fill="#51D8FB" transform="translate(512,312)"/>
<path d="M0 0 C2.14982522 0.11143905 4.30195205 0.1841959 6.4543457 0.22119141 C8.30579948 0.25595078 8.30579948 0.25595078 10.19465637 0.29141235 C12.16531319 0.32118668 12.16531319 0.32118668 14.17578125 0.3515625 C15.55104467 0.37471156 16.92630404 0.39810211 18.30155945 0.42172241 C21.17015813 0.46994447 24.03878473 0.51491463 26.9074707 0.55761719 C30.58745718 0.61271017 34.26723376 0.67652324 37.94703388 0.74279213 C40.78047798 0.79277941 43.61398333 0.8379333 46.44753075 0.88163376 C47.80516305 0.90320734 49.16277127 0.92635589 50.5203495 0.9510994 C52.41102656 0.98488923 54.30182914 1.01142285 56.19262695 1.03759766 C57.26849564 1.05456696 58.34436432 1.07153625 59.45283508 1.08901978 C61.99250986 1.17695376 61.99250986 1.17695376 64 0 C65.5 1.3125 65.5 1.3125 67 3 C67 3.99 67 4.98 67 6 C66.34 6 65.68 6 65 6 C64.505 5.01 64.505 5.01 64 4 C27.37 3.505 27.37 3.505 -10 3 C-10.33 2.34 -10.66 1.68 -11 1 C-7.17853198 -1.59859825 -4.40808384 -0.67268246 0 0 Z " fill="#5B6666" transform="translate(669,585)"/>
<path d="M0 0 C0.33 0 0.66 0 1 0 C1.33 43.56 1.66 87.12 2 132 C2.99 132 3.98 132 5 132 C5 132.66 5 133.32 5 134 C5.66 134 6.32 134 7 134 C7.33 134.99 7.66 135.98 8 137 C4.71303767 137.79953138 3.28976808 138.09658936 0 137 C0 91.79 0 46.58 0 0 Z " fill="#5D696A" transform="translate(452,479)"/>
<path d="M0 0 C2.97 0 5.94 0 9 0 C5.56011921 1.7199404 3.18284636 2.51546564 -0.5078125 3.25390625 C-1.57773437 3.46853516 -2.64765625 3.68316406 -3.75 3.90429688 C-4.86375 4.12150391 -5.9775 4.33871094 -7.125 4.5625 C-8.76082031 4.89411133 -8.76082031 4.89411133 -10.4296875 5.23242188 C-22.41085663 7.60429208 -33.89151977 8.1615839 -46.06811523 8.13037109 C-48.56044577 8.12500442 -51.05259675 8.1303464 -53.54492188 8.13671875 C-55.15625039 8.13605797 -56.7675788 8.13477681 -58.37890625 8.1328125 C-59.11041397 8.13483673 -59.84192169 8.13686096 -60.59559631 8.13894653 C-65.7938801 8.11579654 -70.84067849 7.64042364 -76 7 C-76 6.67 -76 6.34 -76 6 C-75.34346939 5.99191315 -74.68693878 5.98382629 -74.01051331 5.97549438 C-67.14785113 5.88911843 -60.28546687 5.78960195 -53.4230957 5.68261719 C-50.86552618 5.64444692 -48.30790515 5.60957367 -45.75024414 5.578125 C-42.06377823 5.53221455 -38.3776632 5.47426277 -34.69140625 5.4140625 C-33.55667374 5.40251129 -32.42194122 5.39096008 -31.25282288 5.37905884 C-24.87884486 5.26183912 -19.17019317 4.62148921 -13 3 C-13 2.67 -13 2.34 -13 2 C-8.71 2 -4.42 2 0 2 C0 1.34 0 0.68 0 0 Z " fill="#6CD4EB" transform="translate(540,721)"/>
<path d="M0 0 C0.99 0.33 1.98 0.66 3 1 C3.33 1.99 3.66 2.98 4 4 C3.01 5.485 3.01 5.485 2 7 C3.32 7.66 4.64 8.32 6 9 C6 9.66 6 10.32 6 11 C6.99 11 7.98 11 9 11 C9 11.66 9 12.32 9 13 C10.32 13.33 11.64 13.66 13 14 C13 14.66 13 15.32 13 16 C13.66 16.33 14.32 16.66 15 17 C15 17.66 15 18.32 15 19 C16.32 19 17.64 19 19 19 C19 20.32 19 21.64 19 23 C19.78375 23.268125 20.5675 23.53625 21.375 23.8125 C24 25 24 25 26 28 C20.84226079 26.38883981 17.01475725 23.20938019 12.8125 19.9375 C12.06234619 19.35838867 11.31219238 18.77927734 10.53930664 18.18261719 C4.80981398 13.72051472 -0.88907929 9.17370844 -6 4 C-6 3.67 -6 3.34 -6 3 C-5.195625 2.87625 -4.39125 2.7525 -3.5625 2.625 C-2.716875 2.41875 -1.87125 2.2125 -1 2 C-0.67 1.34 -0.34 0.68 0 0 Z " fill="#60D8F1" transform="translate(315,713)"/>
<path d="M0 0 C0.99 0.66 1.98 1.32 3 2 C1.34608232 8.22725067 -0.55759004 13.53962558 -4 19 C-5.258125 19.020625 -6.51625 19.04125 -7.8125 19.0625 C-8.52019531 19.07410156 -9.22789062 19.08570313 -9.95703125 19.09765625 C-12 19 -12 19 -15 18 C-15.33 15.36 -15.66 12.72 -16 10 C-12.52176885 8.84058962 -10.54104422 9.29179116 -7 10 C-7.33 11.65 -7.66 13.3 -8 15 C-6.68 15.33 -5.36 15.66 -4 16 C-4.33 15.01 -4.66 14.02 -5 13 C-4.67 12.34 -4.34 11.68 -4 11 C-3.34 11 -2.68 11 -2 11 C-1.93941406 10.37351562 -1.87882813 9.74703125 -1.81640625 9.1015625 C-1.73261719 8.28429687 -1.64882813 7.46703125 -1.5625 6.625 C-1.48128906 5.81289063 -1.40007813 5.00078125 -1.31640625 4.1640625 C-1 2 -1 2 0 0 Z " fill="#5F6A6C" transform="translate(650,598)"/>
<path d="M0 0 C0.495 0.99 0.495 0.99 1 2 C0.34 2 -0.32 2 -1 2 C-1 2.66 -1 3.32 -1 4 C-1.66 4 -2.32 4 -3 4 C-3 4.66 -3 5.32 -3 6 C-2.34 6.33 -1.68 6.66 -1 7 C-2.98 7.99 -2.98 7.99 -5 9 C-5.33 8.34 -5.66 7.68 -6 7 C-7.32 7.33 -8.64 7.66 -10 8 C-10.33 10.97 -10.66 13.94 -11 17 C-15.875 15.125 -15.875 15.125 -17 14 C-24.04006824 14.57404248 -24.04006824 14.57404248 -30 18 C-31.66617115 18.04063832 -33.33388095 18.042721 -35 18 C-32.9639492 15.9639492 -31.7668273 15.36831087 -29.140625 14.3359375 C-27.97043823 13.86510742 -27.97043823 13.86510742 -26.77661133 13.38476562 C-25.94282959 13.05154297 -25.10904785 12.71832031 -24.25 12.375 C-15.71556091 8.88883947 -7.85708719 4.81935528 0 0 Z " fill="#60D6EF" transform="translate(587,677)"/>
<path d="M0 0 C2.74796255 -0.15266459 4.537414 -0.24574881 7 1.0625 C9.65584118 2.30742555 11.23567345 1.76786849 14 1 C14 1.66 14 2.32 14 3 C14.66 3 15.32 3 16 3 C16.12375 3.639375 16.2475 4.27875 16.375 4.9375 C16.58125 5.618125 16.7875 6.29875 17 7 C17.66 7.33 18.32 7.66 19 8 C19 8.66 19 9.32 19 10 C20.98 10 22.96 10 25 10 C25 10.66 25 11.32 25 12 C25.99 12 26.98 12 28 12 C28 12.66 28 13.32 28 14 C29.65 14 31.3 14 33 14 C33 14.66 33 15.32 33 16 C33.78375 15.938125 34.5675 15.87625 35.375 15.8125 C36.24125 15.874375 37.1075 15.93625 38 16 C38.66 16.99 39.32 17.98 40 19 C33.05455134 17.09092521 26.5452092 14.686858 20 11.6875 C19.13149414 11.29304687 18.26298828 10.89859375 17.36816406 10.4921875 C11.37924504 7.73256553 5.33001746 4.92738128 0 1 C0 0.67 0 0.34 0 0 Z " fill="#56D6F3" transform="translate(384,699)"/>
<path d="M0 0 C3.96703374 0.68397134 7.1929432 2.62951009 10.625 4.625 C11.24528076 4.98327881 11.86556152 5.34155762 12.50463867 5.71069336 C21.11183052 10.74647322 29.41496757 16.51424763 37 23 C37 23.33 37 23.66 37 24 C35.02 24 33.04 24 31 24 C30.814375 23.21625 30.62875 22.4325 30.4375 21.625 C29.17259468 18.60878998 29.17259468 18.60878998 25.4375 17.8125 C24.303125 17.544375 23.16875 17.27625 22 17 C21.67 16.34 21.34 15.68 21 15 C20.01 15 19.02 15 18 15 C16.66018514 14.6937566 15.32488113 14.36548445 14 14 C14 13.34 14 12.68 14 12 C13.46664648 9.41499457 13.46664648 9.41499457 12 7 C9.20898563 5.7913437 9.20898563 5.7913437 6 5 C3.98529902 4.02995879 1.98077953 3.03755118 0 2 C0 1.34 0 0.68 0 0 Z " fill="#65D6EF" transform="translate(587,334)"/>
<path d="M0 0 C0.99 0.99 1.98 1.98 3 3 C2.67 3.33 2.34 3.66 2 4 C1.87472813 6.89065236 1.81389798 9.75856787 1.79467773 12.65063477 C1.78477814 13.55786285 1.77487854 14.46509094 1.76467896 15.39981079 C1.73296405 18.41364894 1.70826722 21.42750289 1.68359375 24.44140625 C1.66303284 26.52506431 1.64203661 28.60871811 1.62062073 30.69236755 C1.56531091 36.18818731 1.51594106 41.68404526 1.46777344 47.17993164 C1.4176233 52.78340064 1.36190345 58.38681388 1.30664062 63.99023438 C1.19895014 74.993442 1.09752952 85.99669795 1 97 C0.67 97 0.34 97 0 97 C0 64.99 0 32.98 0 0 Z " fill="#5D6A6A" transform="translate(578,511)"/>
<path d="M0 0 C2.58104981 0.46090175 3.93443451 0.94672804 6 2.625 C7.89212144 4.24929288 7.89212144 4.24929288 10.125 3.75 C12.04498297 3.0121108 12.04498297 3.0121108 14 2 C13.814375 2.598125 13.62875 3.19625 13.4375 3.8125 C12.77906313 6.16408762 12.77906313 6.16408762 14 9 C14.66 9.33 15.32 9.66 16 10 C16.2475 9.38125 16.495 8.7625 16.75 8.125 C18.20628639 5.64931313 19.37812506 5.04874998 22 4 C22.66 4.66 23.32 5.32 24 6 C22.68 8.64 21.36 11.28 20 14 C15.30165026 13.48855602 12.58644244 11.52921846 8.875 8.6875 C7.84117187 7.90761719 6.80734375 7.12773438 5.7421875 6.32421875 C3.38875913 4.32950382 1.69415408 2.55291494 0 0 Z " fill="#5C6566" transform="translate(393,631)"/>
<path d="M0 0 C1 2 1 2 1 6 C-0.66279327 7.0064275 -2.32983484 8.00585407 -4 9 C-5.34689915 11.57099402 -5.34689915 11.57099402 -6 14 C-6.66 14 -7.32 14 -8 14 C-9.13797842 16.19467267 -10.09108988 18.27326963 -10.875 20.625 C-12 23 -12 23 -14.00390625 23.86328125 C-16.20254728 24.82289639 -16.20254728 24.82289639 -16.72265625 27.12890625 C-16.83480469 27.93199219 -16.94695312 28.73507812 -17.0625 29.5625 C-17.41015625 32.00390625 -17.41015625 32.00390625 -18 34 C-19.485 34.495 -19.485 34.495 -21 35 C-22.45644757 37.08812458 -22.45644757 37.08812458 -23.6875 39.5625 C-24.12449219 40.38878906 -24.56148437 41.21507812 -25.01171875 42.06640625 C-25.33785156 42.70449219 -25.66398438 43.34257812 -26 44 C-26.33 43.34 -26.66 42.68 -27 42 C-24.31895406 35.99893649 -20.9574587 30.47794247 -17.4375 24.9375 C-16.92026367 24.11983154 -16.40302734 23.30216309 -15.87011719 22.4597168 C-10.9178203 14.71780641 -5.55587079 7.31668811 0 0 Z " fill="#69D2E8" transform="translate(278,353)"/>
<path d="M0 0 C0 0.33 0 0.66 0 1 C0.93585937 1.10634766 0.93585937 1.10634766 1.890625 1.21484375 C4 2 4 2 5.046875 4.06640625 C5.27890625 4.89011719 5.5109375 5.71382813 5.75 6.5625 C5.99234375 7.38878906 6.2346875 8.21507812 6.484375 9.06640625 C6.65453125 9.70449219 6.8246875 10.34257812 7 11 C2.64029169 9.65150163 -1.31341438 7.95092154 -5.375 5.875 C-6.43460938 5.33617187 -7.49421875 4.79734375 -8.5859375 4.2421875 C-9.38257813 3.83226562 -10.17921875 3.42234375 -11 3 C-8.15930939 0.15930939 -3.81147953 -1.90573977 0 0 Z " fill="#4FD5F8" transform="translate(577,353)"/>
<path d="M0 0 C1.73152958 1.07955259 3.46011684 2.16382512 5.1875 3.25 C6.15042969 3.85328125 7.11335938 4.4565625 8.10546875 5.078125 C10.87687949 6.91825197 13.40504159 8.92240378 16 11 C17.85839249 12.23372274 19.7337253 13.44230205 21.625 14.625 C24.43840234 16.39012092 27.23633383 18.15755588 30 20 C28.25 24.875 28.25 24.875 26 26 C25.34 23.69 24.68 21.38 24 19 C23.34 19 22.68 19 22 19 C21.34 18.01 20.68 17.02 20 16 C17.41619823 15.74969023 17.41619823 15.74969023 15 16 C14.5978125 15.0409375 14.5978125 15.0409375 14.1875 14.0625 C13.11332248 11.66868314 13.11332248 11.66868314 10 11 C10 10.01 10 9.02 10 8 C9.278125 7.71125 8.55625 7.4225 7.8125 7.125 C5.20833333 6.08333333 2.60416667 5.04166667 0 4 C0 2.68 0 1.36 0 0 Z " fill="#63D4EE" transform="translate(342,704)"/>
<path d="M0 0 C1.65 0 3.3 0 5 0 C1.65234484 2.83967764 -1.75897639 4.213698 -5.875 5.6875 C-7.66550781 6.34298828 -7.66550781 6.34298828 -9.4921875 7.01171875 C-12.86450538 7.96182613 -15.52193846 8.19677107 -19 8 C-18.25 5.0625 -18.25 5.0625 -17 2 C-13.15842838 0.26509669 -8.9060396 1.07469718 -4.8125 1.5 C-3.91144531 1.5928125 -3.01039063 1.685625 -2.08203125 1.78125 C-1.39496094 1.8534375 -0.70789063 1.925625 0 2 C0 1.34 0 0.68 0 0 Z " fill="#5CD7F3" transform="translate(571,711)"/>
<path d="M0 0 C7.13755375 -0.16221713 13.1772779 -0.09929911 20 2 C19.67 2.66 19.34 3.32 19 4 C16.71484375 4.6328125 16.71484375 4.6328125 13.9375 5.125 C13.01839844 5.29257812 12.09929688 5.46015625 11.15234375 5.6328125 C10.08693359 5.81457031 10.08693359 5.81457031 9 6 C8.67 5.34 8.34 4.68 8 4 C7.67 4.99 7.34 5.98 7 7 C6.34 6.01 5.68 5.02 5 4 C4.34 3.67 3.68 3.34 3 3 C3.33 2.67 3.66 2.34 4 2 C3.01 1.67 2.02 1.34 1 1 C1.165 1.886875 1.33 2.77375 1.5 3.6875 C2.34061774 9.41790827 2.0781681 15.22424581 2 21 C1.67 21 1.34 21 1 21 C0.67 14.07 0.34 7.14 0 0 Z " fill="#5CCEE8" transform="translate(512,312)"/>
<path d="M0 0 C0.66 0 1.32 0 2 0 C2.54269531 1.09699219 3.08539063 2.19398438 3.64453125 3.32421875 C4.3670797 4.77869939 5.08974196 6.2331235 5.8125 7.6875 C6.16892578 8.40873047 6.52535156 9.12996094 6.89257812 9.87304688 C8.43643076 12.97491593 9.97448316 15.95951182 11.82421875 18.89453125 C12.21222656 19.58933594 12.60023438 20.28414062 13 21 C12.67 21.66 12.34 22.32 12 23 C11.1646875 21.576875 11.1646875 21.576875 10.3125 20.125 C7.91909897 16.89067428 6.80125361 16.0003299 3 15 C2.34 15 1.68 15 1 15 C1.33 13.68 1.66 12.36 2 11 C1.01 10.34 0.02 9.68 -1 9 C-0.67 6.03 -0.34 3.06 0 0 Z " fill="#57D5EC" transform="translate(273,617)"/>
<path d="M0 0 C2.0625 0.4375 2.0625 0.4375 4 1 C4 1.66 4 2.32 4 3 C3.01 3.495 3.01 3.495 2 4 C2 4.66 2 5.32 2 6 C2.99 6.33 3.98 6.66 5 7 C5 7.99 5 8.98 5 10 C5.66 10 6.32 10 7 10 C7 10.66 7 11.32 7 12 C7.66 12 8.32 12 9 12 C8.67 12.66 8.34 13.32 8 14 C2.39 10.7 -3.22 7.4 -9 4 C-6.05944678 2.03963119 -4.37666283 1.62201684 -1 1 C-0.67 0.67 -0.34 0.34 0 0 Z " fill="#64D9F7" transform="translate(609,304)"/>
<path d="M0 0 C1.12138618 0.01061211 1.12138618 0.01061211 2.26542664 0.0214386 C4.64023277 0.0493048 7.01263226 0.11201993 9.38671875 0.17578125 C11.00191893 0.20087457 12.61715629 0.22368594 14.23242188 0.24414062 C18.18060694 0.29910478 22.12700564 0.38531598 26.07421875 0.48828125 C26.56921875 1.47828125 26.56921875 1.47828125 27.07421875 2.48828125 C16.51421875 2.48828125 5.95421875 2.48828125 -4.92578125 2.48828125 C-4.92578125 3.14828125 -4.92578125 3.80828125 -4.92578125 4.48828125 C-9.13926689 8.70176689 -11.80225987 10.12086997 -17.92578125 10.48828125 C-16.25911458 8.82161458 -14.59244792 7.15494792 -12.92578125 5.48828125 C-12.20624268 4.61534424 -11.4867041 3.74240723 -10.74536133 2.84301758 C-7.16468764 -0.14733637 -4.4538058 -0.16010097 0 0 Z " fill="#60C4DA" transform="translate(624.92578125,653.51171875)"/>
<path d="M0 0 C0.66 0 1.32 0 2 0 C4.26912204 3.92521514 4.39572016 7.40692173 4.65625 11.85546875 C4.82640625 12.91701172 4.82640625 12.91701172 5 14 C5.66 14.33 6.32 14.66 7 15 C7.38486413 16.65552665 7.70513931 18.32609855 8 20 C9.05769013 23.61582438 10.15364046 27.21842715 11.2578125 30.8203125 C12 34 12 34 11 37 C6.6077552 26.65018912 3.17969497 16.03613978 1 5 C0.690625 3.4840625 0.690625 3.4840625 0.375 1.9375 C0.25125 1.298125 0.1275 0.65875 0 0 Z " fill="#6CD4E7" transform="translate(228,578)"/>
<path d="M0 0 C2.31 0 4.62 0 7 0 C7.33 0.66 7.66 1.32 8 2 C12.77024874 3.59008291 17.42038105 4.29874252 22.375 3.375 C26 3 26 3 28.3125 4.8125 C28.869375 5.534375 29.42625 6.25625 30 7 C30.99 7.66 31.98 8.32 33 9 C26.62785963 8.59914952 20.87430687 7.48877271 14.75390625 5.6953125 C11.17950609 4.79283984 7.66714896 4.45763241 3.99609375 4.2109375 C2 4 2 4 0 3 C0 2.01 0 1.02 0 0 Z " fill="#63D4EA" transform="translate(512,338)"/>
<path d="M0 0 C3.95906817 1.43308135 7.28718181 3.33141949 10.8125 5.625 C11.78832031 6.25664063 12.76414062 6.88828125 13.76953125 7.5390625 C14.50558594 8.02117188 15.24164063 8.50328125 16 9 C15.01 10.98 14.02 12.96 13 15 C12.67 14.01 12.34 13.02 12 12 C10.35 11.67 8.7 11.34 7 11 C6.67 9.35 6.34 7.7 6 6 C5.01 5.67 4.02 5.34 3 5 C1.3125 3.5625 1.3125 3.5625 0 2 C0 1.34 0 0.68 0 0 Z " fill="#63DBF6" transform="translate(384,670)"/>
<path d="M0 0 C0.66 0 1.32 0 2 0 C2 4.62 2 9.24 2 14 C1.34 14 0.68 14 0 14 C-0.66 16.97 -1.32 19.94 -2 23 C-2.99 23 -3.98 23 -5 23 C-4.54742618 20.29059138 -4.08814292 17.58260474 -3.625 14.875 C-3.49867188 14.11445313 -3.37234375 13.35390625 -3.2421875 12.5703125 C-2.49243489 8.22174738 -1.52800112 4.15882045 0 0 Z " fill="#61D9F0" transform="translate(229,454)"/>
<path d="M0 0 C3.14812033 1.07676156 6.29302688 2.16263809 9.4375 3.25 C10.31599609 3.55035156 11.19449219 3.85070312 12.09960938 4.16015625 C17.87453815 6.16326808 23.45788192 8.42164031 29 11 C26 12 26 12 24.08984375 11.2578125 C23.37957031 10.88398438 22.66929687 10.51015625 21.9375 10.125 C17.00159767 7.77070448 12.41911874 7.22626801 7 7 C6.34 8.32 5.68 9.64 5 11 C4.01 10.67 3.02 10.34 2 10 C2.66 8.02 3.32 6.04 4 4 C2.68 3.34 1.36 2.68 0 2 C0 1.34 0 0.68 0 0 Z " fill="#62D1EB" transform="translate(567,260)"/>
<path d="M0 0 C0.66 0.33 1.32 0.66 2 1 C1.01 1.33 0.02 1.66 -1 2 C-1.29648437 2.63421875 -1.59296875 3.2684375 -1.8984375 3.921875 C-3.35266962 6.66532 -4.78109364 7.11243746 -7.625 8.25 C-8.44226563 8.58515625 -9.25953125 8.9203125 -10.1015625 9.265625 C-11.04128906 9.62914062 -11.04128906 9.62914062 -12 10 C-12 11.32 -12 12.64 -12 14 C-12.66 14 -13.32 14 -14 14 C-14 13.34 -14 12.68 -14 12 C-14.66 12 -15.32 12 -16 12 C-16 13.32 -16 14.64 -16 16 C-19.96 16.495 -19.96 16.495 -24 17 C-19.49372656 11.87217161 -13.93869374 8.31840053 -8 5 C-7.34 5 -6.68 5 -6 5 C-6 4.34 -6 3.68 -6 3 C-4.03533587 1.93224776 -2.03144641 0.93446535 0 0 Z " fill="#65D0E8" transform="translate(356,285)"/>
<path d="M0 0 C5.40054489 0.82670571 10.8989798 1.00419082 16.34765625 1.359375 C16.01765625 2.019375 15.68765625 2.679375 15.34765625 3.359375 C7.75765625 3.359375 0.16765625 3.359375 -7.65234375 3.359375 C-7.98234375 2.699375 -8.31234375 2.039375 -8.65234375 1.359375 C-5.58247273 -0.72813729 -3.57140455 -0.65933623 0 0 Z " fill="#626B6D" transform="translate(666.65234375,584.640625)"/>
<path d="M0 0 C1.0828125 0.495 1.0828125 0.495 2.1875 1 C4.91703538 2.18238542 4.91703538 2.18238542 7.625 1.8125 C8.40875 1.874375 9.1925 1.93625 10 2 C11.6875 4.4375 11.6875 4.4375 13 7 C13.66 7.33 14.32 7.66 15 8 C15 8.66 15 9.32 15 10 C17.64 9.67 20.28 9.34 23 9 C22.34 10.65 21.68 12.3 21 14 C16.75735344 14 14.35340511 11.66808507 11.0625 9.25 C10.44181641 8.8065625 9.82113281 8.363125 9.18164062 7.90625 C5.84367821 5.48898223 2.82185779 3.02695523 0 0 Z " fill="#66D8EB" transform="translate(619,318)"/>
<path d="M0 0 C0.82757813 0.73669922 0.82757813 0.73669922 1.671875 1.48828125 C4.46370069 3.30109424 5.96185741 3.3172951 9.25 3.1875 C10.58804687 3.14689453 10.58804687 3.14689453 11.953125 3.10546875 C12.96632813 3.05326172 12.96632813 3.05326172 14 3 C11.03378342 4.97747772 10.22224077 5.26005442 6.875 5.5 C1.08559733 6.02974926 -4.48343594 7.16114531 -10 9 C-11.66621616 9.03874921 -13.33394172 9.0450286 -15 9 C-15 8.34 -15 7.68 -15 7 C-9.06 6.505 -9.06 6.505 -3 6 C-3 5.34 -3 4.68 -3 4 C-2.34 4 -1.68 4 -1 4 C-0.67 2.68 -0.34 1.36 0 0 Z " fill="#6AD2EC" transform="translate(441,280)"/>
<path d="M0 0 C4.875 4.625 4.875 4.625 6 8 C6.639375 8.309375 7.27875 8.61875 7.9375 8.9375 C10.50051718 10.25784218 10.7407337 11.4814674 12 14 C13.32467746 14.6837045 14.65863633 15.34964186 16 16 C17.75 18.125 17.75 18.125 19 20 C15.55031331 18.46680592 12.93051669 16.35870856 10 14 C9.0925 13.46375 8.185 12.9275 7.25 12.375 C5 11 5 11 4 9 C1.98330173 7.86649466 1.98330173 7.86649466 0 7 C0 4.69 0 2.38 0 0 Z " fill="#60D9EE" transform="translate(313,676)"/>
<path d="M0 0 C5.73199571 1.46974249 10.33583399 4.44486902 15 8 C15 8.33 15 8.66 15 9 C12.69 9.33 10.38 9.66 8 10 C7.34 9.01 6.68 8.02 6 7 C2.94570927 5.78715124 2.94570927 5.78715124 0 5 C0 3.35 0 1.7 0 0 Z " fill="#62D7EB" transform="translate(624,286)"/>
<path d="M0 0 C0.66 0 1.32 0 2 0 C2.33 0.66 2.66 1.32 3 2 C3.763125 1.835 4.52625 1.67 5.3125 1.5 C8 1 8 1 11 1 C10.835 1.763125 10.67 2.52625 10.5 3.3125 C9.66236568 7.81478449 10.4851279 10.73942223 12 15 C7.47619711 10.75036698 3.61682339 6.04479113 0 1 C0 0.67 0 0.34 0 0 Z " fill="#59D4F0" transform="translate(628,400)"/>
<path d="M0 0 C1.98 0.495 1.98 0.495 4 1 C4 1.66 4 2.32 4 3 C5.98 3 7.96 3 10 3 C10 3.66 10 4.32 10 5 C10.99 5 11.98 5 13 5 C13 5.66 13 6.32 13 7 C14.65 7 16.3 7 18 7 C18 7.66 18 8.32 18 9 C18.78375 8.938125 19.5675 8.87625 20.375 8.8125 C21.24125 8.874375 22.1075 8.93625 23 9 C23.99 10.485 23.99 10.485 25 12 C15.89455379 9.70175036 7.5231689 5.8597477 -1 2 C-0.67 1.34 -0.34 0.68 0 0 Z " fill="#6ED8EF" transform="translate(399,706)"/>
<path d="M0 0 C3.36202939 1.42609159 5.23675579 3.14348515 7.5625 5.9375 C10.03190133 8.88306043 10.03190133 8.88306043 12.71484375 11.62890625 C14 13 14 13 14 15 C15.65 15.33 17.3 15.66 19 16 C19.33 17.65 19.66 19.3 20 21 C19.34 21 18.68 21 18 21 C18 20.34 18 19.68 18 19 C17.01 18.67 16.02 18.34 15 18 C15 17.34 15 16.68 15 16 C14.34 16 13.68 16 13 16 C8.08004294 11.23220656 4.01534513 5.53029219 0 0 Z " fill="#73D4E7" transform="translate(284,690)"/>
<path d="M0 0 C0.33 0 0.66 0 1 0 C0.88597936 2.27141109 0.75841495 4.54214552 0.625 6.8125 C0.55539062 8.07707031 0.48578125 9.34164063 0.4140625 10.64453125 C0 14 0 14 -2 17 C-2 16.01 -2 15.02 -2 14 C-2.99 14 -3.98 14 -5 14 C-5.33 14.66 -5.66 15.32 -6 16 C-6.625 14.1875 -6.625 14.1875 -7 12 C-5 9 -5 9 -2 8 C-1.19787372 6.12612784 -1.19787372 6.12612784 -0.8125 3.9375 C-0.65394531 3.20402344 -0.49539062 2.47054688 -0.33203125 1.71484375 C-0.22246094 1.14894531 -0.11289063 0.58304687 0 0 Z " fill="#5FD5F0" transform="translate(256,473)"/>
<path d="M0 0 C7.07354498 1.87665479 13.48130218 4.66115478 20 8 C19.01 8.495 19.01 8.495 18 9 C17.01 8.67 16.02 8.34 15 8 C14.67 8.99 14.34 9.98 14 11 C14 10.34 14 9.68 14 9 C13.195625 8.62875 13.195625 8.62875 12.375 8.25 C10 7 10 7 7 4.9375 C4.47971572 3.3098164 2.90277468 2.44658072 0 2 C0 1.34 0 0.68 0 0 Z " fill="#6BD2E9" transform="translate(567,325)"/>
<path d="M0 0 C0.92538169 3.70152678 1.08174162 4.63458162 0 8 C1.65 8 3.3 8 5 8 C3.74381926 11.76854223 2.33985294 12.07958456 -1 14 C-1.33 14.66 -1.66 15.32 -2 16 C-2.99 15.67 -3.98 15.34 -5 15 C-3.35 10.05 -1.7 5.1 0 0 Z " fill="#63D6F0" transform="translate(234,436)"/>
<path d="M0 0 C2.31 0.66 4.62 1.32 7 2 C7 2.99 7 3.98 7 5 C8.65 4.67 10.3 4.34 12 4 C12.61875 4.804375 13.2375 5.60875 13.875 6.4375 C15.74164041 9.03874519 15.74164041 9.03874519 18 10 C17.67 10.99 17.34 11.98 17 13 C15.09931562 11.778348 13.20466117 10.54731206 11.3125 9.3125 C10.25675781 8.62800781 9.20101563 7.94351563 8.11328125 7.23828125 C5.01733351 5.01246186 2.60560432 2.76029697 0 0 Z " fill="#68DBF4" transform="translate(365,686)"/>
<path d="M0 0 C0.99 0.33 1.98 0.66 3 1 C3 1.66 3 2.32 3 3 C3.57234375 3.268125 4.1446875 3.53625 4.734375 3.8125 C7.07884634 5.04132636 9.12404938 6.42522176 11.25 8 C11.95640625 8.515625 12.6628125 9.03125 13.390625 9.5625 C14.18726563 10.2740625 14.18726563 10.2740625 15 11 C15 11.66 15 12.32 15 13 C15.99 13.33 16.98 13.66 18 14 C17.01 14.495 17.01 14.495 16 15 C15.34 14.67 14.68 14.34 14 14 C14 13.34 14 12.68 14 12 C12.68 12 11.36 12 10 12 C10 11.34 10 10.68 10 10 C7.60931266 8.89363605 7.60931266 8.89363605 5 8 C4.01 8.495 4.01 8.495 3 9 C2.67 6.69 2.34 4.38 2 2 C1.34 2 0.68 2 0 2 C0 1.34 0 0.68 0 0 Z " fill="#67DAF0" transform="translate(366,655)"/>
<path d="M0 0 C0.90105469 0.11085938 1.80210937 0.22171875 2.73046875 0.3359375 C3.76107422 0.47902344 3.76107422 0.47902344 4.8125 0.625 C1.27381524 3.33747202 -2.22772917 5.5717855 -6.1875 7.625 C-6.8475 7.295 -7.5075 6.965 -8.1875 6.625 C-8.375 4.25 -8.375 4.25 -8.1875 1.625 C-4.73535147 -0.67643236 -3.95270676 -0.51333854 0 0 Z " fill="#5CD5F2" transform="translate(378.1875,305.375)"/>
<path d="M0 0 C0.99 0.495 0.99 0.495 2 1 C1.67 1.66 1.34 2.32 1 3 C1.95519531 2.9278125 2.91039062 2.855625 3.89453125 2.78125 C11.61440154 2.22708184 19.25465097 1.85507663 27 2 C26.67 2.66 26.34 3.32 26 4 C24.8553125 3.979375 23.710625 3.95875 22.53125 3.9375 C18.12498067 3.9375 13.86011517 4.40250274 9.5 5 C8.40945313 5.14308594 8.40945313 5.14308594 7.296875 5.2890625 C5.53064133 5.52146167 3.76522594 5.76006638 2 6 C2 5.34 2 4.68 2 4 C1.34 4 0.68 4 0 4 C0 2.68 0 1.36 0 0 Z " fill="#63D7ED" transform="translate(454,278)"/>
<path d="M0 0 C1.24752897 3.74258691 0.5279335 4.46162767 -1 8 C-1.68679942 10.32748694 -2.35761043 12.65986656 -3 15 C-5 14 -5 14 -5.8125 12.375 C-6.10226785 8.70460722 -4.64443067 6.23013168 -3 3 C-1.3125 1.0625 -1.3125 1.0625 0 0 Z " fill="#55D9EF" transform="translate(264,443)"/>
<path d="M0 0 C0 0.99 0 1.98 0 3 C-0.33 3.33 -0.66 3.66 -1 4 C-1.04080783 5.99958364 -1.04254356 8.00045254 -1 10 C-4.93673644 8.68775452 -7.22719294 7.08089673 -10 4 C-8.68 4 -7.36 4 -6 4 C-5.67 3.01 -5.34 2.02 -5 1 C-3.35 0.67 -1.7 0.34 0 0 Z " fill="#5AD7F3" transform="translate(351,737)"/>
<path d="M0 0 C0.66 0 1.32 0 2 0 C3.10844919 3.32534757 2.84454356 5.62182575 2 9 C-0.53910197 8.61479436 -1.72751123 8.29902057 -3.484375 6.37109375 C-3.90203125 5.73300781 -4.3196875 5.09492187 -4.75 4.4375 C-5.17796875 3.79683594 -5.6059375 3.15617188 -6.046875 2.49609375 C-6.51867187 1.75552734 -6.51867187 1.75552734 -7 1 C-5.5459375 1.0309375 -5.5459375 1.0309375 -4.0625 1.0625 C-1.12534105 1.35618499 -1.12534105 1.35618499 0 0 Z " fill="#5DDAF2" transform="translate(284,681)"/>
<path d="M0 0 C7.16562789 -0.28100502 13.94546999 0.79556805 21 2 C21 2.99 21 3.98 21 5 C13.76410027 4.39700836 7.00629124 2.8849413 0 1 C0 0.67 0 0.34 0 0 Z " fill="#69D5ED" transform="translate(435,721)"/>
<path d="M0 0 C9.9 0 19.8 0 30 0 C28 4 28 4 25 6 C25 4.68 25 3.36 25 2 C16.75 1.67 8.5 1.34 0 1 C0 0.67 0 0.34 0 0 Z " fill="#64DAF3" transform="translate(620,656)"/>
<path d="M0 0 C0 0.66 0 1.32 0 2 C-5.94 2 -11.88 2 -18 2 C-18 1.34 -18 0.68 -18 0 C-12.26944418 -1.52814822 -5.64409459 -1.88136486 0 0 Z " fill="#45EAFD" transform="translate(499,280)"/>
<path d="M0 0 C2.12508244 3.18762365 2.5020163 5.26512223 3 9 C0.69 9 -1.62 9 -4 9 C-4 4.31908701 -3.00354129 3.37898396 0 0 Z " fill="#616C6D" transform="translate(731,510)"/>
<path d="M0 0 C6.93 0.33 13.86 0.66 21 1 C21 1.33 21 1.66 21 2 C16.05 2 11.1 2 6 2 C5.67 2.99 5.34 3.98 5 5 C2.9375 6.1875 2.9375 6.1875 1 7 C0.67 4.69 0.34 2.38 0 0 Z " fill="#606B6C" transform="translate(451,468)"/>
<path d="M0 0 C0.77923828 0.76376953 0.77923828 0.76376953 1.57421875 1.54296875 C1.57421875 2.20296875 1.57421875 2.86296875 1.57421875 3.54296875 C-4.30053157 2.01042519 -9.82051431 -0.13372141 -15.42578125 -2.45703125 C-14.8121875 -2.60269531 -14.19859375 -2.74835938 -13.56640625 -2.8984375 C-11.37304928 -3.41779229 -11.37304928 -3.41779229 -9.17578125 -4.39453125 C-5.13826673 -4.48629294 -3.10411324 -2.41558535 0 0 Z " fill="#6DD3EE" transform="translate(563.42578125,351.45703125)"/>
<path d="M0 0 C-2.28560647 1.5306999 -4.57762667 3.04965044 -6.875 4.5625 C-7.52597656 5.00013672 -8.17695313 5.43777344 -8.84765625 5.88867188 C-10.52625497 6.98754836 -12.26023387 8.0007818 -14 9 C-14.66 8.67 -15.32 8.34 -16 8 C-15.34 7.38125 -14.68 6.7625 -14 6.125 C-11.7715451 4.24362573 -11.7715451 4.24362573 -12 2 C-7.60930911 -0.35215584 -4.84930578 -1.34366181 0 0 Z " fill="#63D6EC" transform="translate(370,314)"/>
<path d="M0 0 C3.3 1.98 6.6 3.96 10 6 C8 11 8 11 6 12 C5.34 9.69 4.68 7.38 4 5 C3.34 5 2.68 5 2 5 C1.34 3.35 0.68 1.7 0 0 Z " fill="#6FD8EF" transform="translate(362,718)"/>
<path d="M0 0 C0.99 0.33 1.98 0.66 3 1 C3.99 1 4.98 1 6 1 C6.33 2.98 6.66 4.96 7 7 C9.97 7.495 9.97 7.495 13 8 C9.86846113 9.3778771 8.71220527 8.90076044 5.375 7.75 C2 6 2 6 0 3 C0 2.01 0 1.02 0 0 Z " fill="#5CD6F3" transform="translate(422,712)"/>
<path d="M0 0 C0.99 0.66 1.98 1.32 3 2 C6.63939932 1.68269476 6.63939932 1.68269476 10 1 C7.22719294 4.08089673 4.93673644 5.68775452 1 7 C0.67 6.01 0.34 5.02 0 4 C-0.99 3.34 -1.98 2.68 -3 2 C-2.01 1.34 -1.02 0.68 0 0 Z " fill="#5FD6F0" transform="translate(603,689)"/>
<path d="M0 0 C1.98 0.99 1.98 0.99 4 2 C4 2.66 4 3.32 4 4 C4.99 3.67 5.98 3.34 7 3 C7.33 4.32 7.66 5.64 8 7 C7.34 7 6.68 7 6 7 C6.33 8.65 6.66 10.3 7 12 C4.07811678 9.3703051 2.02701452 6.35505851 0 3 C0 2.01 0 1.02 0 0 Z " fill="#68D7EC" transform="translate(255,647)"/>
<path d="M0 0 C0.33 0 0.66 0 1 0 C1.33 6.93 1.66 13.86 2 21 C1.01 21.33 0.02 21.66 -1 22 C-1.02700675 19.08327116 -1.04684237 16.16679323 -1.0625 13.25 C-1.07087891 12.425 -1.07925781 11.6 -1.08789062 10.75 C-1.09111328 9.95078125 -1.09433594 9.1515625 -1.09765625 8.328125 C-1.10289307 7.5949707 -1.10812988 6.86181641 -1.11352539 6.10644531 C-0.9975109 3.9538151 -0.59073271 2.0685865 0 0 Z " fill="#65CBDE" transform="translate(222,511)"/>
<path d="M0 0 C0.66 1.32 1.32 2.64 2 4 C1.175 4.020625 0.35 4.04125 -0.5 4.0625 C-5.4695449 5.3936281 -8.36984019 8.47118983 -12 12 C-12.66 11.67 -13.32 11.34 -14 11 C-12.04709472 9.16056628 -10.08818082 7.32840869 -8.125 5.5 C-7.29162109 4.71302734 -7.29162109 4.71302734 -6.44140625 3.91015625 C-2.2265625 0 -2.2265625 0 0 0 Z " fill="#6DD1EB" transform="translate(362,649)"/>
<path d="M0 0 C0 3 0 3 -0.74609375 4.921875 C-1.26786834 7.17115386 -1.26786834 7.17115386 0.65234375 9.140625 C1.40644531 9.83671875 2.16054688 10.5328125 2.9375 11.25 C3.68902344 11.95640625 4.44054687 12.6628125 5.21484375 13.390625 C6.09849609 14.18726563 6.09849609 14.18726563 7 15 C4 15 4 15 1.73828125 13.1015625 C0.93777344 12.28429687 0.13726562 11.46703125 -0.6875 10.625 C-1.49574219 9.81289063 -2.30398438 9.00078125 -3.13671875 8.1640625 C-5 6 -5 6 -5 4 C-3.37373596 2.61767557 -1.7074998 1.28062485 0 0 Z " fill="#6DD5EA" transform="translate(347,661)"/>
<path d="M0 0 C3.875 4.75 3.875 4.75 5 7 C2.08517222 7.80967438 0.53886783 8.21845993 -2.3125 7.0625 C-2.869375 6.711875 -3.42625 6.36125 -4 6 C-3.67 5.01 -3.34 4.02 -3 3 C-2.34 3 -1.68 3 -1 3 C-0.67 2.01 -0.34 1.02 0 0 Z " fill="#5DDBF6" transform="translate(302,663)"/>
<path d="M0 0 C2 1 2 1 3 3 C2.66015625 5.1640625 2.66015625 5.1640625 2.0625 7.625 C1.86785156 8.44226563 1.67320312 9.25953125 1.47265625 10.1015625 C1.31667969 10.72804688 1.16070312 11.35453125 1 12 C-1.71566987 9.65692863 -1.9773321 9.25841401 -2.3125 5.4375 C-2 2 -2 2 0 0 Z " fill="#55D5EF" transform="translate(226,553)"/>
<path d="M0 0 C-3.09423168 3.09423168 -6.5523812 3.93706005 -10.875 4.125 C-11.57625 4.08375 -12.2775 4.0425 -13 4 C-13 3.01 -13 2.02 -13 1 C-4.57142857 -1.42857143 -4.57142857 -1.42857143 0 0 Z " fill="#60D7EE" transform="translate(426,289)"/>
<path d="M0 0 C3.80863968 1.34621545 6.65409851 3.05358737 9.8125 5.5625 C10.60269531 6.18253906 11.39289062 6.80257813 12.20703125 7.44140625 C12.79871094 7.95574219 13.39039063 8.47007812 14 9 C14 9.33 14 9.66 14 10 C12.02 10 10.04 10 8 10 C7.6596875 8.824375 7.6596875 8.824375 7.3125 7.625 C5.66562962 4.33125925 4.35641647 4.20486745 1 3 C0.67 2.01 0.34 1.02 0 0 Z " fill="#65D4E8" transform="translate(610,348)"/>
<path d="M0 0 C0.33 1.32 0.66 2.64 1 4 C0.34 4 -0.32 4 -1 4 C-1 3.34 -1 2.68 -1 2 C-1.66 2 -2.32 2 -3 2 C-3 3.32 -3 4.64 -3 6 C-5.64 6.33 -8.28 6.66 -11 7 C-4.18421053 0 -4.18421053 0 0 0 Z " fill="#5DD6EF" transform="translate(343,295)"/>
<path d="M0 0 C4.31392226 0.4793247 6.16569547 1.7457985 9 5 C7.75 6.5625 7.75 6.5625 6 8 C3.8125 7.6875 3.8125 7.6875 2 7 C2.66 5.68 3.32 4.36 4 3 C2.68 2.01 1.36 1.02 0 0 Z " fill="#5ED2EB" transform="translate(615,281)"/>
<path d="M0 0 C-2.0978523 1.20005531 -4.2020249 2.38502983 -6.3125 3.5625 C-6.90740234 3.90474609 -7.50230469 4.24699219 -8.11523438 4.59960938 C-9.70282559 5.47766262 -11.34993931 6.24586268 -13 7 C-13.99 6.67 -14.98 6.34 -16 6 C-14.68 5.67 -13.36 5.34 -12 5 C-12 4.34 -12 3.68 -12 3 C-10.75823305 2.29773859 -9.50614401 1.61370891 -8.25 0.9375 C-7.55390625 0.55464844 -6.8578125 0.17179688 -6.140625 -0.22265625 C-3.63859372 -1.1312406 -2.4667645 -0.88336837 0 0 Z " fill="#6BD7E7" transform="translate(592,704)"/>
<path d="M0 0 C0.66 0 1.32 0 2 0 C2 0.99 2 1.98 2 3 C3.32 2.67 4.64 2.34 6 2 C6 4.31 6 6.62 6 9 C6.66 9 7.32 9 8 9 C7.67 10.32 7.34 11.64 7 13 C5.82479354 11.40207898 4.66008753 9.79643092 3.5 8.1875 C2.8503125 7.29417969 2.200625 6.40085937 1.53125 5.48046875 C0 3 0 3 0 0 Z " fill="#65DAEE" transform="translate(641,416)"/>
<path d="M0 0 C1.98 0 3.96 0 6 0 C6 0.66 6 1.32 6 2 C2.80973467 4.32019297 -0.41726669 6.34643078 -4 8 C-3.34 7.01 -2.68 6.02 -2 5 C-2.66 4.34 -3.32 3.68 -4 3 C-3.01 3 -2.02 3 -1 3 C-0.67 2.01 -0.34 1.02 0 0 Z " fill="#63D9F0" transform="translate(340,329)"/>
<path d="M0 0 C1.1875 3.0625 1.1875 3.0625 2 6 C-1.33333333 4.66666667 -4.66666667 3.33333333 -8 2 C-5.14066998 -0.85933002 -3.8625627 -1.2875209 0 0 Z " fill="#5CD2EA" transform="translate(574,354)"/>
<path d="M0 0 C4.23429756 1.31061591 8.07407404 2.94356259 12 5 C9.20129973 6.39935013 7.09501208 6.25265405 4 6 C1.44050454 4.14657225 1.02081202 3.06243607 0 0 Z " fill="#5ED5E9" transform="translate(597,272)"/>
<path d="M0 0 C-0.61875 0.061875 -1.2375 0.12375 -1.875 0.1875 C-4.27761141 0.828919 -4.27761141 0.828919 -5.25 3.5625 C-5.4975 4.366875 -5.745 5.17125 -6 6 C-6.66 5.67 -7.32 5.34 -8 5 C-8 4.34 -8 3.68 -8 3 C-9.65 3.33 -11.3 3.66 -13 4 C-10.81006393 1.81006393 -9.4012702 1.27802011 -6.5 0.3125 C-5.7059375 0.04050781 -4.911875 -0.23148437 -4.09375 -0.51171875 C-2 -1 -2 -1 0 0 Z " fill="#63CCE5" transform="translate(407,264)"/>
<path d="M0 0 C3.2910841 3.60957611 4.54663921 6.12637153 5 11 C4.01 11.495 4.01 11.495 3 12 C-0.42857143 4.71428571 -0.42857143 4.71428571 0 0 Z " fill="#5F6869" transform="translate(697,498)"/>
<path d="M0 0 C1.32 0.33 2.64 0.66 4 1 C4 1.66 4 2.32 4 3 C4.5775 3.268125 5.155 3.53625 5.75 3.8125 C8.0325868 5.01719859 9.9737942 6.40798115 12 8 C11.67 8.99 11.34 9.98 11 11 C9.16365304 9.35742342 7.3308593 7.71117305 5.5 6.0625 C4.97535156 5.59392578 4.45070313 5.12535156 3.91015625 4.64257812 C2.5878256 3.44904592 1.29166061 2.22665821 0 1 C0 0.67 0 0.34 0 0 Z " fill="#6DD7E9" transform="translate(606,379)"/>
<path d="M0 0 C0.99 0.33 1.98 0.66 3 1 C3 1.99 3 2.98 3 4 C3.66 4 4.32 4 5 4 C5 4.66 5 5.32 5 6 C5.66 6 6.32 6 7 6 C6.67 6.66 6.34 7.32 6 8 C3.03 6.35 0.06 4.7 -3 3 C-2.01 2.01 -1.02 1.02 0 0 Z " fill="#6CD8ED" transform="translate(611,310)"/>
<path d="M0 0 C4.10958767 1.45044271 7.43258745 3.51110752 11 6 C10.01 6.495 10.01 6.495 9 7 C6.3984375 6.00390625 6.3984375 6.00390625 3.375 4.5625 C2.37210938 4.08941406 1.36921875 3.61632812 0.3359375 3.12890625 C-0.43492187 2.75636719 -1.20578125 2.38382812 -2 2 C-1.34 1.34 -0.68 0.68 0 0 Z " fill="#64D4EB" transform="translate(587,299)"/>
<path d="M0 0 C-0.66 0 -1.32 0 -2 0 C-2.66 1.32 -3.32 2.64 -4 4 C-6.97 3.67 -9.94 3.34 -13 3 C-4.2 -1.4 -4.2 -1.4 0 0 Z " fill="#64D0EA" transform="translate(551,696)"/>
<path d="M0 0 C-2.90507321 2.42089434 -5.63147043 4.31573522 -9 6 C-9.33 6.66 -9.66 7.32 -10 8 C-10 4 -10 4 -8.57421875 2.48046875 C-7.95160156 2.05378906 -7.32898438 1.62710938 -6.6875 1.1875 C-5.76517578 0.52814453 -5.76517578 0.52814453 -4.82421875 -0.14453125 C-3 -1 -3 -1 0 0 Z " fill="#73D8EF" transform="translate(600,671)"/>
<path d="M0 0 C0.66 0 1.32 0 2 0 C2.33 0.66 2.66 1.32 3 2 C4.97888961 2.72693904 6.97954558 3.39816251 9 4 C8.01 4.495 8.01 4.495 7 5 C7.33 6.65 7.66 8.3 8 10 C4.71211176 6.88983545 2.16264012 3.98381075 0 0 Z " fill="#65D6E7" transform="translate(628,400)"/>
<path d="M0 0 C4.28477792 2.30718811 7.72291137 4.32966073 11 8 C7.82908279 7.29535173 4.88231132 6.51700596 2 5 C0.6875 2.375 0.6875 2.375 0 0 Z " fill="#66D3ED" transform="translate(639,295)"/>
<path d="M0 0 C0.66 0.33 1.32 0.66 2 1 C-0.62652025 4.59930552 -2.93963643 7.07666989 -7 9 C-7.66 8.67 -8.32 8.34 -9 8 C-6.03 5.36 -3.06 2.72 0 0 Z " fill="#6AD0E5" transform="translate(326,305)"/>
<path d="M0 0 C2.1875 -0.3125 2.1875 -0.3125 5 0 C7.8125 2.5 7.8125 2.5 10 5 C5.75354935 5 3.61475228 3.18249194 0 1 C0 0.67 0 0.34 0 0 Z " fill="#68D1E3" transform="translate(384,699)"/>
<path d="M0 0 C4.455 0.99 4.455 0.99 9 2 C8.67 2.66 8.34 3.32 8 4 C4.37 3.67 0.74 3.34 -3 3 C-2.01 2.67 -1.02 2.34 0 2 C0 1.34 0 0.68 0 0 Z " fill="#63D7EF" transform="translate(523,312)"/>
<path d="M0 0 C3.3 0 6.6 0 10 0 C10.33 0.99 10.66 1.98 11 3 C11.99 3.33 12.98 3.66 14 4 C10.22134307 5.25955231 8.96588214 4.48087189 5.3125 3.0625 C4.31863281 2.68222656 3.32476563 2.30195313 2.30078125 1.91015625 C1.54152344 1.60980469 0.78226563 1.30945313 0 1 C0 0.67 0 0.34 0 0 Z " fill="#73D6E9" transform="translate(554,289)"/>
<path d="M0 0 C1.32 0.33 2.64 0.66 4 1 C5 5.75 5 5.75 5 8 C4.01 7.67 3.02 7.34 2 7 C0.8125 3.4375 0.8125 3.4375 0 0 Z " fill="#70DBF1" transform="translate(231,592)"/>
<path d="M0 0 C-1 3 -1 3 -3.375 4.75 C-6 6 -6 6 -9 5 C-4.5 0 -4.5 0 0 0 Z " fill="#5C6769" transform="translate(421,407)"/>
<path d="M0 0 C2.31 1.98 4.62 3.96 7 6 C6.67 6.66 6.34 7.32 6 8 C5.34 7.34 4.68 6.68 4 6 C1.41645782 5.83312552 1.41645782 5.83312552 -1 6 C-0.67 4.02 -0.34 2.04 0 0 Z " fill="#62D5EC" transform="translate(643,376)"/>
<path d="M0 0 C0.99 0.33 1.98 0.66 3 1 C3.6875 3.0625 3.6875 3.0625 4 5 C2.02 6.32 0.04 7.64 -2 9 C-2 7.68 -2 6.36 -2 5 C-1.34 4.67 -0.68 4.34 0 4 C0 2.68 0 1.36 0 0 Z " fill="#5FDBF1" transform="translate(349,320)"/>
<path d="M0 0 C5.45479185 0.56820748 9.91059256 1.94637945 15 4 C15 4.33 15 4.66 15 5 C13.02 5 11.04 5 9 5 C9 4.34 9 3.68 9 3 C4.545 2.01 4.545 2.01 0 1 C0 0.67 0 0.34 0 0 Z " fill="#66CEE4" transform="translate(552,320)"/>
<path d="M0 0 C5.53846154 -0.36923077 5.53846154 -0.36923077 7.875 1.5 C8.24625 1.995 8.6175 2.49 9 3 C6.69 3.33 4.38 3.66 2 4 C1.34 2.68 0.68 1.36 0 0 Z " fill="#58D3EF" transform="translate(630,292)"/>
<path d="M0 0 C2.625 0.1875 2.625 0.1875 5.625 2.1875 C5.625 2.8475 5.625 3.5075 5.625 4.1875 C1.89012223 3.6895163 -0.18737635 3.31258244 -3.375 1.1875 C-2.375 0.1875 -2.375 0.1875 0 0 Z " fill="#66D8F3" transform="translate(572.375,292.8125)"/>
<path d="M0 0 C2.31 0.66 4.62 1.32 7 2 C7 2.99 7 3.98 7 5 C8.32 5.66 9.64 6.32 11 7 C7.41584854 7 6.58796261 6.21108216 3.8125 4.0625 C3.09707031 3.51722656 2.38164062 2.97195313 1.64453125 2.41015625 C1.10183594 1.94480469 0.55914062 1.47945312 0 1 C0 0.67 0 0.34 0 0 Z " fill="#71D9EE" transform="translate(365,686)"/>
<path d="M0 0 C3.28788824 3.11016455 5.83735988 6.01618925 8 10 C7.34 10 6.68 10 6 10 C6 9.34 6 8.68 6 8 C5.38125 7.79375 4.7625 7.5875 4.125 7.375 C1.15346355 5.45224112 0.86975341 3.33405473 0 0 Z " fill="#6BDEF0" transform="translate(294,653)"/>
<path d="M0 0 C1.4800841 0.11362262 2.95910074 0.24122908 4.4375 0.375 C5.26121094 0.44460938 6.08492187 0.51421875 6.93359375 0.5859375 C7.95646484 0.79089844 7.95646484 0.79089844 9 1 C9.33 1.66 9.66 2.32 10 3 C8.35 2.67 6.7 2.34 5 2 C4.67 2.99 4.34 3.98 4 5 C4 4.34 4 3.68 4 3 C2.68 2.34 1.36 1.68 0 1 C0 0.67 0 0.34 0 0 Z " fill="#5AD3EC" transform="translate(577,331)"/>
<path d="M0 0 C2.37948772 0.17625835 3.70225849 0.69719773 5.37890625 2.40234375 C6.62115486 3.90649092 7.81376056 5.45129851 9 7 C4.58110387 5.64978174 2.65654657 3.73884332 0 0 Z " fill="#636A6C" transform="translate(393,631)"/>
<path d="M0 0 C1.67542976 0.28604898 3.34385343 0.61781233 5 1 C4.67 1.99 4.34 2.98 4 4 C2.35 4 0.7 4 -1 4 C-1 1 -1 1 0 0 Z " fill="#5E6C6C" transform="translate(629,613)"/>
<path d="M0 0 C1.485 0.99 1.485 0.99 3 2 C3.99 2 4.98 2 6 2 C5.67 3.32 5.34 4.64 5 6 C3.68 5.67 2.36 5.34 1 5 C0.67 3.35 0.34 1.7 0 0 Z " fill="#5E6769" transform="translate(368,601)"/>
<path d="M0 0 C-0.6875 2.375 -0.6875 2.375 -2 5 C-4.625 6.3125 -4.625 6.3125 -7 7 C-3.86206897 0 -3.86206897 0 0 0 Z " fill="#65D1E9" transform="translate(293,338)"/>
<path d="M0 0 C-1.26607607 0.53229326 -2.53810412 1.05044544 -3.8125 1.5625 C-4.52019531 1.85253906 -5.22789062 2.14257812 -5.95703125 2.44140625 C-8 3 -8 3 -11 2 C-10.67 1.34 -10.34 0.68 -10 0 C-6.2683559 -0.91217967 -3.66036382 -1.05602687 0 0 Z " fill="#6ED4E9" transform="translate(406,297)"/>
<path d="M0 0 C0.66 0.99 1.32 1.98 2 3 C4.05003955 4.19232613 4.05003955 4.19232613 6 5 C3.69 5.33 1.38 5.66 -1 6 C-1.66 5.01 -2.32 4.02 -3 3 C-2.34 3 -1.68 3 -1 3 C-0.67 2.01 -0.34 1.02 0 0 Z " fill="#5ADEFD" transform="translate(446,278)"/>
<path d="M0 0 C-0.66 1.65 -1.32 3.3 -2 5 C-3.65 4.01 -5.3 3.02 -7 2 C-4.35261084 0.5393715 -3.10551666 0 0 0 Z " fill="#70D5E6" transform="translate(357,746)"/>
<path d="M0 0 C1.32 0.33 2.64 0.66 4 1 C4.33 2.65 4.66 4.3 5 6 C4.34 6 3.68 6 3 6 C3 5.34 3 4.68 3 4 C2.01 3.67 1.02 3.34 0 3 C0 2.01 0 1.02 0 0 Z " fill="#5FD8E7" transform="translate(299,705)"/>
<path d="M0 0 C1.32 0.66 2.64 1.32 4 2 C1.69 3.32 -0.62 4.64 -3 6 C-3.66 5.34 -4.32 4.68 -5 4 C-3.35 3.67 -1.7 3.34 0 3 C0 2.01 0 1.02 0 0 Z " fill="#62D7EB" transform="translate(620,681)"/>
<path d="M0 0 C0.66 0 1.32 0 2 0 C2.66 2.97 3.32 5.94 4 9 C1.525 8.01 1.525 8.01 -1 7 C-0.67 4.69 -0.34 2.38 0 0 Z " fill="#58D3F1" transform="translate(276,624)"/>
<path d="M0 0 C0.66 0 1.32 0 2 0 C2 0.66 2 1.32 2 2 C2.66 2 3.32 2 4 2 C4 2.66 4 3.32 4 4 C4.66 4.33 5.32 4.66 6 5 C3.69 4.67 1.38 4.34 -1 4 C-0.67 2.68 -0.34 1.36 0 0 Z " fill="#646A6A" transform="translate(615,612)"/>
<path d="M0 0 C0.33 0 0.66 0 1 0 C1 3.3 1 6.6 1 10 C-1.7839183 8.60804085 -1.97898997 6.84424221 -3 4 C-2.34 3.67 -1.68 3.34 -1 3 C-0.67 2.01 -0.34 1.02 0 0 Z " fill="#5F6B6B" transform="translate(579,499)"/>
<path d="M0 0 C0.33 0.66 0.66 1.32 1 2 C0.34 2 -0.32 2 -1 2 C-0.67 3.32 -0.34 4.64 0 6 C-0.66 6 -1.32 6 -2 6 C-2 6.66 -2 7.32 -2 8 C-2.99 7.67 -3.98 7.34 -5 7 C-3.70700306 4.11562221 -2.34058637 2.12780579 0 0 Z " fill="#5E6768" transform="translate(350,481)"/>
<path d="M0 0 C0.99 0.66 1.98 1.32 3 2 C1.02 3.32 -0.96 4.64 -3 6 C-2.625 3.5625 -2.625 3.5625 -2 1 C-1.34 0.67 -0.68 0.34 0 0 Z " fill="#62D4EF" transform="translate(630,673)"/>
<path d="M0 0 C2.89932357 2.39509338 3.50168276 4.31245243 4 8 C3.34 8 2.68 8 2 8 C1.01 5.69 0.02 3.38 -1 1 C-0.67 0.67 -0.34 0.34 0 0 Z " fill="#616769" transform="translate(356,580)"/>
<path d="M0 0 C2.475 0.99 2.475 0.99 5 2 C1.6853333 4.02907167 -0.4315979 4.12742133 -4.25 3.625 C-5.14203125 3.51414062 -6.0340625 3.40328125 -6.953125 3.2890625 C-7.62859375 3.19367187 -8.3040625 3.09828125 -9 3 C-9 2.67 -9 2.34 -9 2 C-6.03 2 -3.06 2 0 2 C0 1.34 0 0.68 0 0 Z " fill="#606B6C" transform="translate(544,551)"/>
<path d="M0 0 C0.66 0.33 1.32 0.66 2 1 C1.125 5.75 1.125 5.75 0 8 C-0.99 7.67 -1.98 7.34 -3 7 C-2.01 4.69 -1.02 2.38 0 0 Z " fill="#41DDF0" transform="translate(253,543)"/>
<path d="M0 0 C0.66 0.66 1.32 1.32 2 2 C1.34 2 0.68 2 0 2 C-0.66 3.65 -1.32 5.3 -2 7 C-2.99 7 -3.98 7 -5 7 C-3.70700306 4.11562221 -2.34058637 2.12780579 0 0 Z " fill="#5F6568" transform="translate(377,425)"/>
<path d="M0 0 C2.79872437 2.52788007 4.45773019 4.20411134 5 8 C3.68 8 2.36 8 1 8 C0.67 5.36 0.34 2.72 0 0 Z " fill="#66D4EA" transform="translate(666,405)"/>
<path d="M0 0 C0.33 0.66 0.66 1.32 1 2 C0.00390625 3.9453125 0.00390625 3.9453125 -1.4375 6.125 C-1.91058594 6.84945313 -2.38367188 7.57390625 -2.87109375 8.3203125 C-3.24363281 8.87460937 -3.61617188 9.42890625 -4 10 C-4.33 9.01 -4.66 8.02 -5 7 C-2 2 -2 2 0 0 Z " fill="#6ED4EA" transform="translate(287,393)"/>
<path d="M0 0 C2.0625 0.4375 2.0625 0.4375 4 1 C2.02 3.97 2.02 3.97 0 7 C-1.0625 5.125 -1.0625 5.125 -2 3 C-1 1 -1 1 0 0 Z " fill="#6DD8F0" transform="translate(300,371)"/>
<path d="M0 0 C3.7952131 1.49097658 5.61042731 3.75700849 8 7 C5.05043472 5.63055898 2.47531189 4.12169591 0 2 C0 1.34 0 0.68 0 0 Z " fill="#78D7ED" transform="translate(332,696)"/>
<path d="M0 0 C0.66 0.33 1.32 0.66 2 1 C0.02579865 3.52259061 -0.96745642 3.9929808 -4.1875 4.6875 C-5.5796875 4.8421875 -5.5796875 4.8421875 -7 5 C-4.88437775 2.67281553 -2.94982021 1.14186589 0 0 Z " fill="#6ED2E7" transform="translate(580,681)"/>
<path d="M0 0 C3.37503669 1.1858237 5.64722731 2.27573689 8 5 C3.48279689 5.36625971 3.48279689 5.36625971 1.1875 3.625 C0 2 0 2 0 0 Z " fill="#6ADCE9" transform="translate(384,670)"/>
<path d="M0 0 C0.99 0.33 1.98 0.66 3 1 C4.1875 3.5625 4.1875 3.5625 5 6 C2.525 5.01 2.525 5.01 0 4 C0 2.68 0 1.36 0 0 Z " fill="#5BD3EC" transform="translate(284,639)"/>
<path d="M0 0 C0.66 0 1.32 0 2 0 C2.99 2.31 3.98 4.62 5 7 C4.01 7 3.02 7 2 7 C0.5393715 4.35261084 0 3.10551666 0 0 Z " fill="#626B6B" transform="translate(735,522)"/>
<path d="M0 0 C0.66 0.33 1.32 0.66 2 1 C2 2.65 2 4.3 2 6 C1.01 6 0.02 6 -1 6 C-1.33 4.68 -1.66 3.36 -2 2 C-1.34 2 -0.68 2 0 2 C0 1.34 0 0.68 0 0 Z " fill="#60DAF8" transform="translate(260,451)"/>
<path d="M0 0 C0.66 0 1.32 0 2 0 C0.25 5.75 0.25 5.75 -2 8 C-1.125 1.125 -1.125 1.125 0 0 Z " fill="#6AD5EE" transform="translate(279,405)"/>
<path d="M0 0 C2.00720923 0.28674418 4.0085944 0.61866701 6 1 C6.33 2.32 6.66 3.64 7 5 C1.25 3.25 1.25 3.25 -1 1 C-0.67 0.67 -0.34 0.34 0 0 Z " fill="#67D4EA" transform="translate(577,359)"/>
</svg>
